<?xml version="1.0" standalone="no"?>
<!DOCTYPE svg PUBLIC "-//W3C//DTD SVG 20010904//EN"
 "http://www.w3.org/TR/2001/REC-SVG-20010904/DTD/svg10.dtd">
<svg version="1.0" xmlns="http://www.w3.org/2000/svg"
 width="16.000000pt" height="16.000000pt" viewBox="0 0 16.000000 16.000000"
 preserveAspectRatio="xMidYMid meet">

<g transform="translate(0.000000,16.000000) scale(0.100000,-0.100000)"
fill="#000000" stroke="none">
<path d="M75 150 c-3 -5 -3 -15 1 -22 4 -7 3 -8 -4 -4 -8 5 -10 -11 -6 -56 3
-35 7 -64 9 -66 2 -2 12 5 24 14 14 13 17 20 9 25 -9 6 -9 14 1 36 9 19 9 29
2 31 -6 2 -11 8 -11 14 0 5 9 6 20 3 24 -8 25 -2 4 19 -18 18 -40 21 -49 6z"/>
</g>
</svg>
